<svg width="41" height="41" viewBox="0 0 41 41" fill="none" xmlns="http://www.w3.org/2000/svg">
<path d="M7.68845 14.5208C10.8108 1.20271 30.2069 1.2027 33.3135 14.5208C35.0454 21.9442 25.626 36.7291 20.501 36.7291C15.376 36.7291 5.95506 21.9505 7.68845 14.5208Z" stroke="white" stroke-opacity="0.35"/>
<path d="M28.1875 17.0833C28.1875 21.3289 24.7457 24.7708 20.5 24.7708C16.2543 24.7708 12.8125 21.3289 12.8125 17.0833C12.8125 12.8376 16.2543 9.39575 20.5 9.39575C24.7457 9.39575 28.1875 12.8376 28.1875 17.0833Z" stroke="white" stroke-opacity="0.35"/>
<path d="M18.9791 13.4716C18.8978 13.6678 18.8978 13.9166 18.8978 14.4141V15.4305C18.8978 15.4547 18.8978 15.4668 18.8903 15.4743C18.8828 15.4818 18.8707 15.4818 18.8465 15.4818H17.8301C17.3326 15.4818 17.0838 15.4818 16.8876 15.563C16.626 15.6714 16.4182 15.8793 16.3098 16.1409C16.2285 16.3371 16.2285 16.5858 16.2285 17.0833C16.2285 17.5808 16.2285 17.8296 16.3098 18.0258C16.4182 18.2874 16.626 18.4953 16.8876 18.6036C17.0838 18.6849 17.3326 18.6849 17.8301 18.6849H18.8465C18.8707 18.6849 18.8828 18.6849 18.8903 18.6924C18.8978 18.6999 18.8978 18.712 18.8978 18.7361V19.7526C18.8978 20.2501 18.8978 20.4988 18.9791 20.6951C19.0874 20.9567 19.2953 21.1645 19.5569 21.2729C19.7531 21.3542 20.0019 21.3542 20.4993 21.3542C20.9968 21.3542 21.2456 21.3542 21.4418 21.2729C21.7034 21.1645 21.9113 20.9567 22.0196 20.6951C22.1009 20.4988 22.1009 20.2501 22.1009 19.7526V18.7361C22.1009 18.712 22.1009 18.6999 22.1084 18.6924C22.1159 18.6849 22.128 18.6849 22.1522 18.6849H23.1686C23.6661 18.6849 23.9149 18.6849 24.1111 18.6036C24.3727 18.4953 24.5805 18.2874 24.6889 18.0258C24.7702 17.8296 24.7702 17.5808 24.7702 17.0833C24.7702 16.5858 24.7702 16.3371 24.6889 16.1409C24.5805 15.8793 24.3727 15.6714 24.1111 15.563C23.9149 15.4818 23.6661 15.4818 23.1686 15.4818H22.1522C22.128 15.4818 22.1159 15.4818 22.1084 15.4743C22.1009 15.4668 22.1009 15.4547 22.1009 15.4305V14.4141C22.1009 13.9166 22.1009 13.6678 22.0196 13.4716C21.9113 13.21 21.7034 13.0021 21.4418 12.8938C21.2456 12.8125 20.9968 12.8125 20.4993 12.8125C20.0019 12.8125 19.7531 12.8125 19.5569 12.8938C19.2953 13.0021 19.0874 13.21 18.9791 13.4716Z" stroke="white" stroke-opacity="0.35"/>
</svg>
