<svg width="68" height="42" viewBox="0 0 68 42" fill="none" xmlns="http://www.w3.org/2000/svg">
<path d="M34 0C15.2492 0 2.992e-05 15.2492 0 34C6.01049e-05 34.6011 0.238888 35.1776 0.663958 35.6027C1.08903 36.0278 1.66553 36.2666 2.26667 36.2667H9.06667C9.36703 36.2709 9.66524 36.2154 9.94396 36.1034C10.2227 35.9914 10.4764 35.8251 10.6903 35.6142C10.9042 35.4033 11.074 35.152 11.19 34.8749C11.3059 34.5978 11.3656 34.3004 11.3656 34C11.3656 33.6996 11.3059 33.4022 11.19 33.1251C11.074 32.848 10.9042 32.5967 10.6903 32.3858C10.4764 32.1749 10.2227 32.0086 9.94396 31.8966C9.66524 31.7846 9.36703 31.7291 9.06667 31.7333H4.76944C5.26364 25.3222 7.78665 19.5071 11.6875 14.8986L13.5056 16.6931C13.7094 16.9265 13.9589 17.1156 14.2387 17.2488C14.5185 17.382 14.8226 17.4565 15.1323 17.4675C15.442 17.4785 15.7507 17.426 16.0392 17.313C16.3278 17.2001 16.5902 17.0292 16.8101 16.8109C17.03 16.5926 17.2029 16.3315 17.3179 16.0438C17.433 15.756 17.4878 15.4478 17.4791 15.138C17.4703 14.8282 17.3982 14.5235 17.267 14.2428C17.1359 13.962 16.9486 13.7111 16.7167 13.5056L14.875 11.6639C19.4601 7.69479 25.2923 5.11781 31.7333 4.62778V9.06667C31.7291 9.36703 31.7846 9.66524 31.8966 9.94396C32.0086 10.2227 32.1749 10.4764 32.3858 10.6903C32.5967 10.9042 32.848 11.074 33.1251 11.19C33.4022 11.3059 33.6996 11.3656 34 11.3656C34.3004 11.3656 34.5978 11.3059 34.8749 11.19C35.152 11.074 35.4033 10.9042 35.6142 10.6903C35.8251 10.4764 35.9914 10.2227 36.1034 9.94396C36.2154 9.66524 36.2709 9.36703 36.2667 9.06667V4.62778C42.7077 5.11781 48.5399 7.69479 53.125 11.6639L51.2833 13.5056C51.0514 13.7111 50.8641 13.962 50.733 14.2428C50.6018 14.5235 50.5297 14.8282 50.5209 15.138C50.5122 15.4478 50.567 15.756 50.6821 16.0438C50.7971 16.3315 50.97 16.5926 51.1899 16.8109C51.4098 17.0292 51.6722 17.2001 51.9608 17.313C52.2493 17.426 52.558 17.4785 52.8677 17.4675C53.1774 17.4565 53.4815 17.382 53.7613 17.2488C54.0411 17.1156 54.2906 16.9265 54.4944 16.6931L56.3125 14.8986C60.2134 19.5071 62.7364 25.3222 63.2306 31.7333H58.9333C58.633 31.7291 58.3348 31.7846 58.056 31.8966C57.7773 32.0086 57.5236 32.1749 57.3097 32.3858C57.0958 32.5967 56.926 32.848 56.81 33.1251C56.6941 33.4022 56.6344 33.6996 56.6344 34C56.6344 34.3004 56.6941 34.5978 56.81 34.8749C56.926 35.152 57.0958 35.4033 57.3097 35.6142C57.5236 35.8251 57.7773 35.9914 58.056 36.1034C58.3348 36.2154 58.633 36.2709 58.9333 36.2667H65.7333C66.3345 36.2666 66.911 36.0278 67.336 35.6027C67.7611 35.1776 67.9999 34.6011 68 34C68 15.2492 52.7508 0 34 0ZM46.2778 19.4319C45.9513 19.4339 45.6292 19.5064 45.3333 19.6444C45.3333 19.6444 41.8554 21.2347 38.0847 23.1153C36.1994 24.0555 34.2459 25.0591 32.5833 25.9958C30.9207 26.9326 29.6685 27.6358 28.6639 28.6403C25.7323 31.572 25.7323 36.4044 28.6639 39.3361C31.5955 42.2677 36.4044 42.2676 39.3361 39.3361C40.3407 38.3315 41.0437 37.0793 41.9806 35.4167C42.9174 33.7541 43.9208 31.777 44.8611 29.8917C46.7417 26.1211 48.3556 22.6431 48.3556 22.6431C48.5144 22.2964 48.5832 21.9153 48.5557 21.535C48.5281 21.1546 48.4051 20.7874 48.1979 20.4673C47.9908 20.1471 47.7062 19.8844 47.3706 19.7035C47.0349 19.5225 46.6591 19.4291 46.2778 19.4319ZM41.4847 26.5153C41.1596 27.1836 41.1779 27.1744 40.8236 27.8847C39.9034 29.7299 38.9109 31.6237 38.0375 33.1736C37.1642 34.7236 36.2501 36.0235 36.1486 36.125C34.9494 37.3241 33.0505 37.3241 31.8514 36.125C30.6522 34.9258 30.6522 33.0507 31.8514 31.8514C31.9529 31.7499 33.2528 30.8358 34.8028 29.9625C36.3528 29.0892 38.2702 28.0966 40.1153 27.1764C40.8266 26.8216 40.8156 26.8408 41.4847 26.5153Z" fill="white"/>
</svg>
