<svg width="91" height="98" viewBox="0 0 91 98" fill="none" xmlns="http://www.w3.org/2000/svg">
<path d="M14.5464 26.1798L17.0867 28.6958C18.3589 29.9558 20.413 29.9396 21.669 28.6715C22.9331 27.3953 22.9168 25.3453 21.6487 24.0852L13.5822 16.1037C12.3222 14.8518 10.2843 14.8518 9.02429 16.1037L0.961801 24.0852C-0.310416 25.3452 -0.322551 27.3953 0.937491 28.6675C1.56953 29.3076 2.40418 29.6318 3.24285 29.6318C4.06531 29.6318 4.89177 29.3198 5.51979 28.6959L8.06412 26.1758V37.281C8.06412 39.0718 9.51453 40.5222 11.3053 40.5222C13.0961 40.5222 14.5466 39.0718 14.5466 37.281L14.5464 26.1798Z" fill="white"/>
<path d="M90.0373 24.0856L81.9748 16.1041C80.7148 14.8523 78.6768 14.8523 77.4169 16.1041L69.3544 24.0856C68.0822 25.3456 68.07 27.3997 69.3301 28.672C70.586 29.9442 72.6442 29.9563 73.9124 28.6963L76.4526 26.1803V37.2813C76.4526 39.0721 77.9031 40.5225 79.6939 40.5225C81.4847 40.5225 82.9351 39.0721 82.9351 37.2813V26.1761L85.4794 28.6962C86.1074 29.3201 86.9339 29.6321 87.7563 29.6321C88.591 29.6321 89.4296 29.312 90.0617 28.6678C91.3217 27.3956 91.3094 25.3457 90.0373 24.0856Z" fill="white"/>
<path d="M39.7189 13.523L42.2592 11.011V22.112C42.2592 23.9028 43.7096 25.3532 45.5004 25.3532C47.2912 25.3532 48.7416 23.9028 48.7416 22.112V11.011L51.2819 13.527C51.9099 14.1509 52.7363 14.467 53.5588 14.467C54.3934 14.467 55.2281 14.1469 55.8642 13.5067C57.1242 12.2345 57.112 10.1805 55.8399 8.92444L47.7774 0.938915C46.5174 -0.312972 44.4794 -0.312972 43.2195 0.938915L35.161 8.9204C33.8888 10.1763 33.8767 12.2305 35.1367 13.5027C36.3967 14.7709 38.4467 14.787 39.7189 13.523Z" fill="white"/>
<path d="M46.902 62.8061C42.5345 60.7236 41.4244 59.8484 41.7363 58.7181C42.0563 57.5593 43.7539 57.0084 45.1395 57.0569C45.3988 57.065 47.6798 57.1947 47.9837 58.6937C48.3321 60.4521 50.0499 61.5865 51.7962 61.238C53.5545 60.8896 54.693 59.1798 54.3405 57.4255C53.7652 54.5327 51.6502 52.2842 48.7494 51.2307V50.0558C48.7494 48.265 47.299 46.8146 45.5082 46.8146C43.7174 46.8146 42.267 48.265 42.267 50.0558V50.8742C38.9367 51.6521 36.3437 53.8885 35.4929 56.9798C33.6332 63.6527 39.9415 66.6629 44.1105 68.6565C48.478 70.739 49.5881 71.6141 49.2762 72.7445C48.9521 73.9032 47.2586 74.4097 45.873 74.4056C45.6137 74.3975 43.3327 74.2679 43.0288 72.7688C42.6804 71.0145 40.9625 69.8679 39.2163 70.2245C37.4579 70.5729 36.3194 72.2827 36.672 74.037C37.2473 76.9298 39.3622 79.1784 42.263 80.2318V81.4068C42.263 83.1976 43.7134 84.648 45.5043 84.648C47.2951 84.648 48.7455 83.1976 48.7455 81.4068V80.5721C52.088 79.7942 54.6688 77.5781 55.5196 74.4867C57.3792 67.8098 51.0709 64.7997 46.902 62.8061Z" fill="white"/>
<path d="M45.4985 34.2346C28.1297 34.2346 13.998 48.3663 13.998 65.7351C13.998 83.108 28.1297 97.2355 45.4985 97.2355C62.8673 97.2355 76.999 83.1038 76.999 65.7351C76.999 48.3663 62.8673 34.2346 45.4985 34.2346ZM45.4985 90.7531C31.7029 90.7531 20.4805 79.5307 20.4805 65.7351C20.4805 51.9353 31.7029 40.717 45.4985 40.717C59.2942 40.717 70.5166 51.9394 70.5166 65.7351C70.5166 79.5307 59.2942 90.7531 45.4985 90.7531Z" fill="white"/>
</svg>
