<svg width="40" height="47" viewBox="0 0 40 47" fill="none" xmlns="http://www.w3.org/2000/svg">
<path d="M39.4684 7.75673C39.1275 7.41776 38.6638 7.22794 38.182 7.22794C32.1823 7.22794 26.4048 5.045 21.9184 1.0813L21.2092 0.457614C20.5183 -0.152538 19.4819 -0.152538 18.7956 0.457614L18.0865 1.0813C13.6001 5.045 7.82257 7.22794 1.81817 7.22794C1.33635 7.22794 0.872709 7.41776 0.53182 7.75673C0.190907 8.0957 0 8.55669 0 9.03575V24.5785C0 31.8191 3.96366 38.4852 10.3454 41.9742L19.1227 46.774C19.3955 46.9232 19.6955 47 20 47C20.3045 47 20.6046 46.9232 20.8773 46.774L29.6546 41.9742C36.0366 38.4851 40 31.8185 40 24.5785V9.03575C40 8.55668 39.8093 8.09568 39.4684 7.75673ZM36.3638 24.5786C36.3638 30.499 33.1229 35.9543 27.9047 38.8064L20.0001 43.1271L12.0955 38.8064C6.87722 35.9545 3.63636 30.4996 3.63636 24.5786V10.7846C9.65472 10.4005 15.3822 8.10453 20.0001 4.21337C24.6138 8.10476 30.3455 10.4005 36.3638 10.7846V24.5786ZM18.1319 26.3186L28.664 15.0377C29.3458 14.3055 30.4958 14.2649 31.2322 14.9428C31.9686 15.6207 32.0095 16.7642 31.3277 17.4964L19.5097 30.1512C19.1733 30.5128 18.7052 30.7207 18.2097 30.7297H18.1779C17.696 30.7297 17.2324 30.5399 16.8915 30.2009L10.5276 23.8732C9.81843 23.1681 9.81843 22.0247 10.5276 21.3151C11.2367 20.61 12.3912 20.61 13.1003 21.3151L18.1319 26.3186Z" fill="white"/>
</svg>
