<svg width="86" height="92" viewBox="0 0 86 92" fill="none" xmlns="http://www.w3.org/2000/svg">
<path d="M79.4702 63.6791H64.7093H52.5224H38.9627H20.425L28.3341 56.5611L28.3209 56.5479C29.4726 55.5095 30.209 54.0236 30.209 52.3507C30.209 49.2222 27.6733 46.6866 24.5448 46.6866C23.0872 46.6866 21.7731 47.253 20.7687 48.1536L20.7554 48.1385L1.87484 65.131L1.88806 65.1461C0.738231 66.1864 0 67.6723 0 69.3433C0 71.0142 0.738231 72.5001 1.88806 73.5404L1.87484 73.5536L20.7554 90.5462L20.7687 90.533C21.7731 91.4355 23.0891 92 24.5448 92C27.6733 92 30.209 89.4643 30.209 86.3358C30.209 84.6649 29.4707 83.1771 28.3209 82.1386L28.3341 82.1235L20.425 75.0074H46.8582H79.4702C82.5987 75.0074 85.1343 72.4718 85.1343 69.3433C85.1343 66.2148 82.5987 63.6791 79.4702 63.6791Z" fill="white"/>
<path d="M5.66461 16.9925H20.4255H32.6124H46.1721H64.7097L56.8007 9.87455L56.8139 9.86134C55.6622 8.8229 54.9258 7.337 54.9258 5.66418C54.9258 2.53566 57.4615 0 60.59 0C62.0476 0 63.3617 0.566417 64.3661 1.46702L64.3793 1.45192L83.2599 18.4445L83.2467 18.4596C84.3965 19.4999 85.1348 20.9858 85.1348 22.6567C85.1348 24.3276 84.3965 25.8136 83.2467 26.8539L83.2599 26.8671L64.3793 43.8596L64.3661 43.8464C63.3617 44.7489 62.0457 45.3134 60.59 45.3134C57.4615 45.3134 54.9258 42.7778 54.9258 39.6493C54.9258 37.9783 55.664 36.4905 56.8139 35.4521L56.8007 35.437L64.7097 28.3209H38.2766H5.66461C2.5361 28.3209 0.000434875 25.7852 0.000434875 22.6567C0.000434875 19.5282 2.5361 16.9925 5.66461 16.9925Z" fill="white"/>
</svg>
