<svg width="116" height="82" viewBox="0 0 116 82" fill="none" xmlns="http://www.w3.org/2000/svg">
<path d="M87.2231 29.0746V26.9254C87.2231 24.9751 87.6587 23.3234 88.5298 21.9701C89.4009 20.5771 90.8942 19.1443 93.0098 17.6716C94.8764 16.398 96.2038 15.3035 96.992 14.3881C97.8216 13.4328 98.2364 12.3184 98.2364 11.0448C98.2364 9.81094 97.7387 8.85572 96.7431 8.17911C95.789 7.50249 94.4409 7.16418 92.6987 7.16418C90.9564 7.16418 89.235 7.42289 87.5342 7.9403C85.8335 8.45771 84.0912 9.15423 82.3075 10.0298L79.0098 3.64179C81.0424 2.56716 83.2409 1.69154 85.6053 1.01493C87.9698 0.338309 90.5624 0 93.3831 0C97.6972 0 101.036 0.995025 103.401 2.98508C105.807 4.97513 107.01 7.50249 107.01 10.5672C107.01 12.199 106.74 13.6119 106.201 14.806C105.662 16 104.853 17.1144 103.774 18.1493C102.696 19.1841 101.348 20.2587 99.7298 21.3731C98.4853 22.2488 97.5312 22.9851 96.8675 23.5821C96.2453 24.1393 95.8098 24.7164 95.5609 25.3134C95.3535 25.8706 95.2498 26.5473 95.2498 27.3433V29.0746H87.2231ZM86.2275 39.0448C86.2275 37.2139 86.7461 35.9403 87.7831 35.2239C88.8201 34.4677 90.0853 34.0896 91.5787 34.0896C93.0305 34.0896 94.275 34.4677 95.312 35.2239C96.349 35.9403 96.8675 37.2139 96.8675 39.0448C96.8675 40.796 96.349 42.0697 95.312 42.8657C94.275 43.6219 93.0305 44 91.5787 44C90.0853 44 88.8201 43.6219 87.7831 42.8657C86.7461 42.0697 86.2275 40.796 86.2275 39.0448Z" fill="white"/>
<path d="M2.82412 76.3698H14.915V8.30058C14.915 7.55397 15.2116 6.83793 15.7395 6.31C16.2674 5.78206 16.9835 5.48547 17.7301 5.48547H35.8594C36.606 5.48547 37.322 5.78206 37.85 6.31C38.3779 6.83793 38.6745 7.55397 38.6745 8.30058V76.3698H47.7532V33.3691C47.7532 32.6225 48.0498 31.9064 48.5777 31.3785C49.1057 30.8506 49.8217 30.554 50.5683 30.554H68.768C69.5146 30.554 70.2306 30.8506 70.7585 31.3785C71.2865 31.9064 71.5831 32.6225 71.5831 33.3691V76.3698H80.7322V57.016C80.7322 56.2694 81.0288 55.5533 81.5567 55.0254C82.0846 54.4975 82.8007 54.2009 83.5473 54.2009H101.691C102.437 54.2009 103.153 54.4975 103.681 55.0254C104.209 55.5533 104.506 56.2694 104.506 57.016V76.3698H112.388C113.135 76.3698 113.851 76.6664 114.379 77.1944C114.907 77.7223 115.203 78.4383 115.203 79.1849C115.203 79.9315 114.907 80.6476 114.379 81.1755C113.851 81.7035 113.135 82 112.388 82H2.82412C2.07751 82 1.36147 81.7035 0.833542 81.1755C0.305603 80.6476 0.00901794 79.9315 0.00901794 79.1849C0.00901794 78.4383 0.305603 77.7223 0.833542 77.1944C1.36147 76.6664 2.07751 76.3698 2.82412 76.3698ZM98.8755 76.3698V59.8311H86.3624V76.3698H98.8755ZM65.9529 76.3698V36.1842H53.3834V76.3698H65.9529ZM33.0443 76.3698V11.1157H20.5452V76.3698H33.0443Z" fill="white"/>
</svg>
