<svg width="49" height="47" viewBox="0 0 49 47" fill="none" xmlns="http://www.w3.org/2000/svg">
<path d="M41.3825 38.6658L41.6386 42.9475C41.6798 43.6378 41.9937 44.2834 42.511 44.7424C43.0283 45.2013 43.7067 45.4359 44.397 45.3947C45.0874 45.3534 45.733 45.0396 46.192 44.5223C46.6509 44.0049 46.8855 43.3265 46.8443 42.6362L46.2217 32.2248C46.1804 31.5345 45.8666 30.8888 45.3493 30.4299C44.832 29.9709 44.1535 29.7363 43.4632 29.7776L33.0518 30.4001C32.3615 30.4414 31.7159 30.7552 31.2569 31.2725C30.798 31.7899 30.5634 32.4683 30.6046 33.1586C30.6459 33.8489 30.9597 34.4946 31.477 34.9535C31.9944 35.4125 32.6728 35.6471 33.3631 35.6058L37.3481 35.3675C40.5958 34.7693 41.1546 34.5832 41.3825 38.6658Z" fill="white"/>
<path d="M6.45775 9.79313L6.30456 5.50653C6.27986 4.81542 5.98163 4.16243 5.47548 3.6912C4.96933 3.21998 4.29671 2.96912 3.6056 2.99382C2.91449 3.01852 2.2615 3.31675 1.79027 3.8229C1.31905 4.32906 1.06819 5.00167 1.09289 5.69278L1.46539 16.1161C1.49009 16.8072 1.78832 17.4602 2.29447 17.9314C2.80062 18.4027 3.47324 18.6535 4.16435 18.6288L14.5877 18.2563C15.2788 18.2316 15.9318 17.9334 16.403 17.4272C16.8742 16.9211 17.1251 16.2485 17.1004 15.5574C17.0757 14.8662 16.7775 14.2133 16.2713 13.742C15.7652 13.2708 15.0925 13.02 14.4014 13.0447L10.4119 13.1872C7.15079 13.7073 6.58767 13.88 6.45775 9.79313Z" fill="white"/>
<path d="M2.76546 24.321C2.37279 29.4707 4.7639 41.7399 18.6684 44.3469C28.0925 46.1139 39.6762 39.1972 41.6397 34.334" stroke="white" stroke-width="4" stroke-linecap="round"/>
<path d="M46.3164 23.1066C46.7091 17.9569 42.1926 6.23725 30.4135 3.08069C18.6332 -0.0762128 9.40566 8.23038 7.44217 13.0936" stroke="white" stroke-width="4" stroke-linecap="round"/>
</svg>
