<svg width="54" height="48" viewBox="0 0 54 48" fill="none" xmlns="http://www.w3.org/2000/svg">
<path d="M46.2853 18.1923H45.7502C46.2846 16.5004 46.4756 14.7207 46.3121 12.9555C46.1487 11.1903 45.6341 9.47456 44.7979 7.90685C43.9617 6.33913 42.8204 4.95042 41.4398 3.82059C40.0591 2.69076 38.4662 1.8421 36.7527 1.32343C35.0392 0.80476 33.239 0.626312 31.4556 0.79835C29.6722 0.970388 27.9407 1.48952 26.3609 2.32588C24.781 3.16224 23.3839 4.29933 22.2498 5.67174C21.1158 7.04416 20.2673 8.62482 19.753 10.3228C18.4635 10.0337 17.1276 10.0111 15.8288 10.2564C14.5301 10.5016 13.2965 11.0096 12.2054 11.7483C11.1143 12.4871 10.1891 13.4407 9.48788 14.5496C8.78663 15.6584 8.32438 16.8985 8.13009 18.1923H7.71473C6.70485 18.1834 5.7032 18.3725 4.76761 18.7487C3.83202 19.1249 2.98102 19.6807 2.26375 20.384C1.54647 21.0872 0.977131 21.9241 0.588589 22.8462C0.200046 23.7684 0 24.7575 0 25.7565C0 26.7555 0.200046 27.7447 0.588589 28.6668C0.977131 29.5889 1.54647 30.4258 2.26375 31.1291C2.98102 31.8324 3.83202 32.3881 4.76761 32.7643C5.7032 33.1405 6.70485 33.3296 7.71473 33.3208H18.89C19.393 33.3208 19.8754 33.1231 20.2311 32.7713C20.5868 32.4194 20.7866 31.9422 20.7866 31.4446C20.7866 30.947 20.5868 30.4698 20.2311 30.1179C19.8754 29.7661 19.393 29.5684 18.89 29.5684H7.71473C7.20464 29.5747 6.69837 29.4807 6.22527 29.292C5.75218 29.1032 5.32167 28.8235 4.95871 28.4689C4.59576 28.1143 4.30759 27.6919 4.1109 27.2263C3.91422 26.7607 3.81294 26.2611 3.81294 25.7565C3.81294 25.2519 3.91422 24.7523 4.1109 24.2867C4.30759 23.8211 4.59576 23.3987 4.95871 23.0442C5.32167 22.6896 5.75218 22.4098 6.22527 22.221C6.69837 22.0323 7.20464 21.9383 7.71473 21.9446H9.93817C10.197 21.9446 10.4532 21.8921 10.6908 21.7904C10.9284 21.6887 11.1424 21.54 11.3198 21.3535C11.4971 21.1669 11.6339 20.9464 11.7219 20.7056C11.8099 20.4647 11.8471 20.2086 11.8312 19.953C11.8235 19.8293 11.8193 19.7067 11.8193 19.5901C11.821 18.0656 12.434 16.6041 13.5237 15.5262C14.6134 14.4482 16.0908 13.8419 17.6319 13.8401C18.5579 13.8373 19.4708 14.0561 20.2929 14.4778C20.5651 14.6167 20.8674 14.6884 21.1738 14.6866C21.4802 14.6848 21.7815 14.6096 22.0521 14.4674C22.3227 14.3253 22.5545 14.1204 22.7276 13.8703C22.9006 13.6202 23.0099 13.3324 23.046 13.0314C23.2202 11.6004 23.7149 10.2258 24.4941 9.00773C25.2732 7.7897 26.3172 6.75891 27.5499 5.99043C28.7826 5.22195 30.1731 4.73512 31.6201 4.56541C33.0671 4.39569 34.5341 4.54736 35.9144 5.00937C37.2946 5.47139 38.5533 6.2321 39.5988 7.23612C40.6443 8.24014 41.4502 9.46219 41.9579 10.8133C42.4656 12.1643 42.6623 13.6104 42.5336 15.0462C42.4049 16.4819 41.9542 17.8712 41.2142 19.1129C41.0439 19.3979 40.9528 19.7223 40.9502 20.0533C40.9476 20.3843 41.0336 20.7101 41.1994 20.9977C41.3652 21.2852 41.6049 21.5243 41.8942 21.6906C42.1836 21.8569 42.5122 21.9445 42.8469 21.9446H46.2853C46.7954 21.9383 47.3016 22.0323 47.7747 22.221C48.2478 22.4098 48.6783 22.6896 49.0413 23.0442C49.4042 23.3987 49.6924 23.8211 49.8891 24.2867C50.0858 24.7523 50.1871 25.2519 50.1871 25.7565C50.1871 26.2611 50.0858 26.7607 49.8891 27.2263C49.6924 27.6919 49.4042 28.1143 49.0413 28.4689C48.6783 28.8235 48.2478 29.1032 47.7747 29.292C47.3016 29.4807 46.7954 29.5747 46.2853 29.5684H35.1106C34.8615 29.5684 34.6149 29.6169 34.3848 29.7112C34.1547 29.8055 33.9456 29.9437 33.7695 30.1179C33.5934 30.2921 33.4536 30.499 33.3583 30.7266C33.263 30.9542 33.214 31.1982 33.214 31.4446C33.214 31.691 33.263 31.9349 33.3583 32.1626C33.4536 32.3902 33.5934 32.597 33.7695 32.7713C33.9456 32.9455 34.1547 33.0837 34.3848 33.178C34.6149 33.2722 34.8615 33.3208 35.1106 33.3208H46.2853C47.2952 33.3296 48.2968 33.1405 49.2324 32.7643C50.168 32.3881 51.019 31.8324 51.7362 31.1291C52.4535 30.4258 53.0229 29.5889 53.4114 28.6668C53.8 27.7447 54 26.7555 54 25.7565C54 24.7575 53.8 23.7684 53.4114 22.8462C53.0229 21.9241 52.4535 21.0872 51.7362 20.384C51.019 19.6807 50.168 19.1249 49.2324 18.7487C48.2968 18.3725 47.2952 18.1834 46.2853 18.1923Z" fill="white"/>
<path d="M33.9428 35.9125L28.9447 40.7957V21.2565C28.9447 20.7523 28.7398 20.2688 28.3749 19.9123C28.01 19.5558 27.5152 19.3555 26.9992 19.3555C26.4832 19.3555 25.9883 19.5558 25.6235 19.9123C25.2586 20.2688 25.0536 20.7523 25.0536 21.2565V40.7957L20.0556 35.9125C19.6887 35.566 19.1972 35.3742 18.6869 35.3784C18.1766 35.3826 17.6885 35.5825 17.3277 35.9351C16.9668 36.2877 16.7622 36.7647 16.7579 37.2633C16.7536 37.7619 16.9499 38.2422 17.3046 38.6007L25.6234 46.7298C25.9883 47.0863 26.4832 47.2865 26.9992 47.2865C27.5152 47.2865 28.0101 47.0863 28.375 46.7298L36.6938 38.6007C37.0485 38.2422 37.2448 37.7619 37.2405 37.2633C37.2362 36.7647 37.0316 36.2877 36.6707 35.9351C36.3099 35.5825 35.8218 35.3826 35.3115 35.3784C34.8012 35.3742 34.3097 35.566 33.9428 35.9125Z" fill="white"/>
</svg>
