<svg width="21" height="21" viewBox="0 0 21 21" fill="none" xmlns="http://www.w3.org/2000/svg">
<path d="M5.02133 2.10664C4.53819 2.16813 4.07381 2.33625 3.66019 2.5994C3.24656 2.86256 2.89354 3.2145 2.62545 3.63097C2.18026 4.28462 1.92411 5.05375 1.88644 5.84993C1.82996 6.66805 1.82996 7.60484 1.82996 8.48084C1.82996 10.2358 1.82996 12.0505 1.88644 13.8015C1.88644 14.3273 1.94387 14.8541 1.94387 15.3828C1.99264 15.9976 2.16747 16.5949 2.45693 17.1357C2.92481 17.9895 3.70316 18.6189 4.62218 18.8868C5.54337 19.0699 6.4789 19.1668 7.41722 19.1762C9.5288 19.1762 11.7524 19.1762 13.8602 19.1183C14.5482 19.1188 15.235 19.0604 15.9134 18.9437C16.6312 18.7816 17.2986 18.4395 17.8556 17.9481C18.2997 17.4964 18.6157 16.9295 18.7697 16.308C18.9749 15.4889 19.0699 14.645 19.0521 13.7996C19.0521 11.1687 19.1095 8.53873 18.9956 5.90782C18.9564 5.39189 18.8616 4.88198 18.7132 4.38735C18.497 3.64247 18.0064 3.01307 17.3453 2.63244C16.6768 2.25217 15.9404 2.01364 15.1801 1.93106C14.4335 1.93106 5.65208 1.93106 5.02322 2.10761M4.67866 20.8694C3.4343 20.6715 2.29015 20.0531 1.42797 19.1126C0.961219 18.5944 0.612373 17.9765 0.406544 17.3036C0.105924 16.3803 -0.0299253 15.409 0.00550354 14.4363C0.015859 14.3543 0.00550354 6.83785 0.00550354 6.71822C0.0591639 6.07858 0.0591639 5.43798 0.172133 4.78869C0.35354 3.5143 0.983745 2.35199 1.94387 1.52103C2.50236 1.03932 3.13986 0.663015 3.82668 0.409623C4.69188 0.128099 5.59541 -0.00999446 6.50311 0.000562546C6.5596 0.000562546 15.0012 0.000562651 15.229 0.0594133C15.7666 0.103914 16.301 0.181558 16.8294 0.291921C18.1053 0.612559 19.2219 1.40219 19.9671 2.51088C20.5157 3.36902 20.8494 4.3525 20.9387 5.3743C20.9952 6.07569 20.9952 6.83688 20.9952 7.59326V8.29464C20.9876 8.35928 20.9952 12.6197 20.9952 12.6785C21.0144 13.7318 20.9763 14.7853 20.8813 15.8343C20.8136 16.5463 20.62 17.2397 20.3098 17.8805C19.9709 18.5553 19.5058 19.1552 18.941 19.6461C18.517 20.0487 18.0099 20.3481 17.4574 20.5221C15.632 21.2823 5.2501 20.9321 4.68054 20.8732L4.67866 20.8694Z" fill="white"/>
<path d="M10.499 14.0396C10.9468 14.0498 11.3922 13.9695 11.8097 13.8032C12.2272 13.6369 12.6086 13.3879 12.9321 13.0705C13.2556 12.753 13.5148 12.3733 13.695 11.9531C13.8752 11.5328 13.9728 11.0803 13.9823 10.6214V10.5278C13.9943 9.8277 13.8052 9.1394 13.4384 8.54861C13.0716 7.95782 12.5433 7.49063 11.9194 7.20521C11.2954 6.91979 10.6033 6.82874 9.92926 6.94339C9.25519 7.05805 8.62892 7.37334 8.12839 7.85003C7.62787 8.32671 7.27521 8.94373 7.11431 9.62428C6.95341 10.3048 6.99138 11.0188 7.22349 11.6774C7.45561 12.336 7.87161 12.9101 8.41971 13.3283C8.96782 13.7464 9.62382 13.9901 10.306 14.029C10.3729 14.029 10.4378 14.0338 10.5028 14.0338M15.9225 10.4642C15.9183 11.1983 15.773 11.9244 15.495 12.601C15.2169 13.2777 14.8115 13.8915 14.302 14.4075C13.7924 14.9236 13.1886 15.3317 12.5251 15.6086C11.8616 15.8854 11.1514 16.0257 10.435 16.0212H10.3268C8.9141 15.9897 7.56996 15.3912 6.58348 14.3544C5.597 13.3177 5.04701 11.9256 5.05183 10.4775C5.05664 9.02949 5.61586 7.64123 6.60921 6.61141C7.60255 5.58158 8.95064 4.99246 10.3635 4.97079C10.4642 4.97079 10.5659 4.97079 10.6657 4.9814C12.0707 5.00274 13.4107 5.59157 14.3943 6.61988C15.378 7.64819 15.9258 9.03285 15.9187 10.4728L15.9225 10.4642Z" fill="white"/>
<path d="M16.999 4.67598C17.0078 4.99221 16.8938 5.2991 16.682 5.52922C16.4701 5.75933 16.1778 5.89383 15.8693 5.90316H15.8015C15.5032 5.87683 15.2258 5.73552 15.0252 5.50776C14.8246 5.28 14.7158 4.98275 14.7207 4.67598C14.7193 4.53041 14.7458 4.38596 14.7987 4.25088C14.8517 4.11581 14.9302 3.99275 15.0296 3.88874C15.129 3.78473 15.2474 3.7018 15.378 3.64469C15.5087 3.58758 15.6491 3.5574 15.7911 3.55589C15.8311 3.55492 15.8711 3.55717 15.9107 3.56265C16.1882 3.55274 16.4581 3.6561 16.6613 3.85001C16.8644 4.04393 16.9842 4.31254 16.9943 4.59687V4.66923" fill="white"/>
</svg>
