<svg width="41" height="57" viewBox="0 0 41 57" fill="none" xmlns="http://www.w3.org/2000/svg">
<path d="M6.28255 57C5.63804 56.9969 5.034 56.6804 4.66033 56.1509C4.28982 55.6213 4.19641 54.9414 4.41125 54.3304L12.6028 30.9303L1.88291 30.3694C1.26019 30.335 0.690398 30.0091 0.341676 29.4889C-0.00704644 28.9687 -0.0942316 28.3171 0.105038 27.7217L9.25552 1.33845C9.54197 0.520664 10.3172 -0.018295 11.1766 0.000475113H27.1182C27.7627 -0.00265805 28.373 0.310679 28.7467 0.840238C29.1203 1.36978 29.2137 2.04971 28.9989 2.66383L23.5407 18.4339L39.012 18.3525C39.806 18.3525 40.5252 18.8319 40.8397 19.5682C41.1511 20.3046 41.0016 21.1568 40.4536 21.7365L7.73272 56.373C7.35597 56.7741 6.82979 56.9997 6.28179 56.9997L6.28255 57ZM4.74443 26.5186L15.4739 27.0732C16.1153 27.1014 16.7038 27.4304 17.0681 27.9631C17.4137 28.4895 17.4946 29.1475 17.2923 29.7429L11.2737 46.8133L34.3483 22.3889L20.7422 22.4609C20.0977 22.4641 19.4874 22.1507 19.1137 21.6212C18.7401 21.0885 18.6467 20.4086 18.8615 19.7976L24.3041 4.01141H12.5567L4.74443 26.5186Z" fill="white"/>
</svg>
