<svg width="19" height="18" viewBox="0 0 19 18" fill="none" xmlns="http://www.w3.org/2000/svg">
<path d="M8.00622 11.7323L7.49423 12.3117C5.85698 14.1503 4.21972 15.9948 2.58247 17.8334C2.54308 17.8748 2.49807 17.8985 2.44181 17.9044H0.112524C0.0843927 17.9044 0.0562647 17.9044 0.0281332 17.9044L6.92597 10.1538L0 0.050293H6.64465C6.68404 0.050293 6.7178 0.050293 6.75155 0.0739408C6.78531 0.0916766 6.81344 0.115324 6.83032 0.150796C8.11312 2.0308 9.40154 3.90488 10.6843 5.78489L10.735 5.85583C10.735 5.85583 10.7744 5.82036 10.7912 5.80262C12.4679 3.91671 14.1445 2.03671 15.8211 0.150796C15.8493 0.121236 15.8774 0.0916766 15.9168 0.0739408C15.9562 0.0562049 15.9956 0.050293 16.0349 0.050293H18.4092L11.8321 7.44023L19 17.8926C18.9719 17.8926 18.9437 17.8985 18.9156 17.9044H12.3272C12.3272 17.9044 12.271 17.8985 12.2484 17.8807C12.2259 17.863 12.2034 17.8453 12.1922 17.8157C10.8813 15.9002 9.5647 13.9788 8.24252 12.0634L8.01747 11.7323M15.5061 15.9771C15.4779 15.9357 15.4611 15.9121 15.4498 15.8884C14.6396 14.706 13.8351 13.5236 13.0249 12.3353L5.98638 2.07218C5.97512 2.04262 5.95262 2.01306 5.92449 1.99532C5.89636 1.97759 5.8626 1.96577 5.82884 1.96577C5.0918 1.96577 4.35476 1.96577 3.61771 1.96577C3.58958 1.96577 3.56144 1.97168 3.51643 1.97759L3.92153 2.56878C5.435 4.77394 6.94285 6.9791 8.45632 9.18426C9.98667 11.419 11.5226 13.6537 13.053 15.8884C13.0699 15.918 13.0924 15.9416 13.1205 15.9534C13.1487 15.9712 13.1824 15.9771 13.2105 15.9771H15.416C15.4498 15.9771 15.4836 15.9771 15.5173 15.9712" fill="white"/>
</svg>
