<svg width="79" height="50" viewBox="0 0 79 50" fill="none" xmlns="http://www.w3.org/2000/svg">
<path fill-rule="evenodd" clip-rule="evenodd" d="M39.5009 3.82258C35.2785 3.82258 31.8558 7.24543 31.8558 11.4677C31.8558 15.6901 35.2785 19.1129 39.5009 19.1129C43.7234 19.1129 47.1461 15.6901 47.1461 11.4677C47.1461 7.24543 43.7234 3.82258 39.5009 3.82258ZM28.0332 11.4677C28.0332 5.1343 33.1673 0 39.5009 0C45.8346 0 50.9687 5.1343 50.9687 11.4677C50.9687 17.8014 45.8346 22.9355 39.5009 22.9355C33.1673 22.9355 28.0332 17.8014 28.0332 11.4677Z" fill="white"/>
<path fill-rule="evenodd" clip-rule="evenodd" d="M66.2581 15.6301C63.1619 15.6301 60.6517 18.1403 60.6517 21.2365C60.6517 24.3328 63.1619 26.843 66.2581 26.843C69.3544 26.843 71.8646 24.3328 71.8646 21.2365C71.8646 18.1403 69.3544 15.6301 66.2581 15.6301ZM56.9141 21.2365C56.9141 16.076 61.0976 11.8925 66.2581 11.8925C71.4187 11.8925 75.6022 16.076 75.6022 21.2365C75.6022 26.3971 71.4187 30.5806 66.2581 30.5806C61.0976 30.5806 56.9141 26.3971 56.9141 21.2365Z" fill="white"/>
<path fill-rule="evenodd" clip-rule="evenodd" d="M13.5921 15.6301C10.4958 15.6301 7.98568 18.1403 7.98568 21.2365C7.98568 24.3328 10.4958 26.843 13.5921 26.843C16.6885 26.843 19.1986 24.3328 19.1986 21.2365C19.1986 18.1403 16.6885 15.6301 13.5921 15.6301ZM4.24805 21.2365C4.24805 16.076 8.43154 11.8925 13.5921 11.8925C18.7527 11.8925 22.9362 16.076 22.9362 21.2365C22.9362 26.3971 18.7527 30.5806 13.5921 30.5806C8.43154 30.5806 4.24805 26.3971 4.24805 21.2365Z" fill="white"/>
<path fill-rule="evenodd" clip-rule="evenodd" d="M22.9355 32.545C22.9355 25.3612 28.8516 19.5376 36.1494 19.5376H43.7002C50.998 19.5376 56.914 25.3612 56.914 32.545V43.6942C56.914 46.7728 54.3785 49.2688 51.251 49.2688H28.5986C25.471 49.2688 22.9355 46.7728 22.9355 43.6942V32.545ZM36.1494 23.254C30.9367 23.254 26.7109 27.4138 26.7109 32.545V43.6942C26.7109 44.7203 27.5561 45.5524 28.5986 45.5524H51.251C52.2933 45.5524 53.1387 44.7203 53.1387 43.6942V32.545C53.1387 27.4138 48.9129 23.254 43.7002 23.254H36.1494Z" fill="white"/>
<path fill-rule="evenodd" clip-rule="evenodd" d="M52.666 39.7124C52.666 32.3234 58.5609 26.3334 65.8327 26.3334C73.1044 26.3334 78.9993 32.3234 78.9993 39.7124V43.535C78.9993 46.7016 76.4729 49.2689 73.3565 49.2689H58.3089C55.1925 49.2689 52.666 46.7016 52.666 43.535V39.7124ZM65.8327 30.156C60.6386 30.156 56.4279 34.4346 56.4279 39.7124V43.535C56.4279 44.5904 57.2702 45.4463 58.3089 45.4463H73.3565C74.3952 45.4463 75.2374 44.5904 75.2374 43.535V39.7124C75.2374 34.4346 71.0267 30.156 65.8327 30.156Z" fill="white"/>
<path fill-rule="evenodd" clip-rule="evenodd" d="M0 39.7124C0 32.3234 5.89491 26.3334 13.1667 26.3334C20.4384 26.3334 26.3333 32.3234 26.3333 39.7124V43.535C26.3333 46.7016 23.807 49.2689 20.6905 49.2689H5.64286C2.52638 49.2689 0 46.7016 0 43.535V39.7124ZM13.1667 30.156C7.97257 30.156 3.7619 34.4346 3.7619 39.7124V43.535C3.7619 44.5904 4.60404 45.4463 5.64286 45.4463H20.6905C21.7293 45.4463 22.5714 44.5904 22.5714 43.535V39.7124C22.5714 34.4346 18.3608 30.156 13.1667 30.156Z" fill="white"/>
</svg>
