<svg width="40" height="53" viewBox="0 0 40 53" fill="none" xmlns="http://www.w3.org/2000/svg">
<path d="M40 7.57209C40 3.39799 36.581 0 32.3811 0C28.1811 0 24.7621 3.39799 24.7621 7.57209C24.7621 11.0931 27.1954 14.0508 30.4763 14.8934V16.9757C30.4763 21.183 27.0288 24.6096 22.7952 24.6096H17.2048C14.2524 24.6096 11.562 25.7217 9.52368 27.5438V14.8936C12.8046 14.0512 15.2379 11.0934 15.2379 7.57228C15.2379 3.39817 11.8189 0.000181688 7.61894 0.000181688C3.41902 0.000181688 0 3.39817 0 7.57228C0 11.0933 2.43331 14.051 5.71421 14.8936V38.1066C2.43331 38.949 0 41.9068 0 45.4279C0 49.602 3.41902 53 7.61894 53C11.8189 53 15.2379 49.602 15.2379 45.4279C15.2379 41.9069 12.8046 38.9492 9.52368 38.1066V36.0243C9.52368 31.8218 12.9712 28.3952 17.2048 28.3952H22.7952C29.1329 28.3952 34.2858 23.2746 34.2858 16.9753V14.893C37.5667 14.0506 40 11.0932 40 7.57209ZM3.81002 7.57209C3.81002 5.48504 5.51953 3.78605 7.61949 3.78605C9.71945 3.78605 11.429 5.48504 11.429 7.57209C11.429 9.65915 9.71945 11.3581 7.61949 11.3581C5.51953 11.3581 3.81002 9.65915 3.81002 7.57209ZM11.429 45.4326C11.429 47.5196 9.71945 49.2186 7.61949 49.2186C5.51953 49.2186 3.81002 47.5196 3.81002 45.4326C3.81002 43.3455 5.51953 41.6465 7.61949 41.6465C9.71945 41.6465 11.429 43.3455 11.429 45.4326ZM32.3811 11.3581C30.2811 11.3581 28.5716 9.65915 28.5716 7.57209C28.5716 5.48504 30.2811 3.78605 32.3811 3.78605C34.481 3.78605 36.1905 5.48504 36.1905 7.57209C36.1905 9.65915 34.481 11.3581 32.3811 11.3581Z" fill="white"/>
</svg>
