<svg width="49" height="49" viewBox="0 0 49 49" fill="none" xmlns="http://www.w3.org/2000/svg">
<path d="M24.3504 44.2702C21.1622 44.2744 18.0196 43.5133 15.1866 42.051C12.3536 40.5886 9.91289 38.4677 8.06963 35.8664C6.22637 33.2651 5.03436 30.2594 4.59375 27.1018C4.15314 23.9442 4.47681 20.727 5.53755 17.7205C6.5983 14.7139 8.36514 12.0059 10.6896 9.82386C13.0141 7.64184 15.8283 6.04958 18.8959 5.18086C21.9634 4.31213 25.1946 4.19232 28.3181 4.8315C31.4415 5.47067 34.366 6.85015 36.8456 8.85404H33.2044C32.6174 8.85404 32.0543 9.08724 31.6392 9.50236C31.2241 9.91747 30.9909 10.4805 30.9909 11.0675C30.9909 11.6546 31.2241 12.2176 31.6392 12.6327C32.0543 13.0478 32.6174 13.2811 33.2044 13.2811H42.0585C42.6455 13.2811 43.2085 13.0478 43.6236 12.6327C44.0388 12.2176 44.272 11.6546 44.272 11.0675V2.21351C44.272 1.62645 44.0388 1.06344 43.6236 0.648322C43.2085 0.233208 42.6455 0 42.0585 0C41.4714 0 40.9084 0.233208 40.4933 0.648322C40.0782 1.06344 39.8449 1.62645 39.8449 2.21351V5.60239C36.8349 3.11384 33.2701 1.38626 29.4518 0.565551C25.6334 -0.255153 21.6736 -0.144868 17.9069 0.887091C14.1401 1.91905 10.677 3.84237 7.81014 6.4946C4.94325 9.14683 2.75676 12.4501 1.43535 16.1253C0.113936 19.8005 -0.303579 23.7398 0.218069 27.6103C0.739717 31.4809 2.18521 35.1691 4.43244 38.3633C6.67967 41.5576 9.66264 44.1641 13.1294 45.9627C16.5961 47.7614 20.4448 48.6993 24.3504 48.6972C24.9374 48.6972 25.5005 48.464 25.9156 48.0489C26.3307 47.6338 26.5639 47.0708 26.5639 46.4837C26.5639 45.8966 26.3307 45.3336 25.9156 44.9185C25.5005 44.5034 24.9374 44.2702 24.3504 44.2702Z" fill="white"/>
<path d="M32.5538 32.554C32.9687 32.1389 33.2018 31.576 33.2018 30.9891C33.2018 30.4021 32.9687 29.8392 32.5538 29.4241L26.5618 23.4322V11.0675C26.5618 10.4805 26.3286 9.91744 25.9135 9.50233C25.4983 9.08721 24.9353 8.854 24.3483 8.854C23.7612 8.854 23.1982 9.08721 22.7831 9.50233C22.368 9.91744 22.1348 10.4805 22.1348 11.0675V24.3486C22.1349 24.9356 22.3682 25.4985 22.7833 25.9135L29.4239 32.554C29.8389 32.969 30.4019 33.2021 30.9888 33.2021C31.5757 33.2021 32.1387 32.969 32.5538 32.554Z" fill="white"/>
<path d="M45.6463 30.7899C45.3738 30.6458 45.0742 30.5603 44.7668 30.5387C44.4593 30.5172 44.1508 30.5601 43.8608 30.6647C43.5709 30.7692 43.306 30.9332 43.0831 31.1461C42.8602 31.359 42.6843 31.616 42.5665 31.9009C42.4487 32.1857 42.3917 32.4919 42.3991 32.8001C42.4065 33.1082 42.4782 33.4114 42.6095 33.6902C42.7409 33.969 42.929 34.2173 43.1619 34.4192C43.3947 34.6211 43.6672 34.7722 43.9618 34.8627C44.2252 34.987 44.514 35.0476 44.8051 35.0398C45.3131 35.0338 45.8036 34.8533 46.1942 34.5285C46.5848 34.2038 46.8519 33.7545 46.9505 33.2562C47.0491 32.7579 46.9734 32.2408 46.7359 31.7917C46.4984 31.3426 46.1137 30.9889 45.6463 30.7899Z" fill="white"/>
<path d="M38.4269 38.4265C38.0132 38.845 37.7812 39.4097 37.7812 39.9981C37.7812 40.5865 38.0132 41.1512 38.4269 41.5697C38.8468 41.9814 39.4115 42.212 39.9996 42.212C40.5876 42.212 41.1523 41.9814 41.5723 41.5697C41.9891 41.1526 42.2231 40.587 42.2229 39.9973C42.2227 39.4077 41.9883 38.8422 41.5711 38.4254C41.154 38.0086 40.5884 37.7746 39.9988 37.7748C39.4091 37.775 38.8437 38.0094 38.4269 38.4265Z" fill="white"/>
<path d="M31.9857 42.7651C31.4427 42.9881 31.0105 43.4178 30.7842 43.9595C30.558 44.5013 30.5562 45.1107 30.7793 45.6537C31.0024 46.1967 31.4321 46.6289 31.9738 46.8551C32.5155 47.0814 33.1249 47.0831 33.6679 46.8601C34.2086 46.6312 34.6373 46.1985 34.861 45.6557C35.0848 45.1129 35.0856 44.5037 34.8632 43.9604C34.7534 43.6925 34.5916 43.449 34.3873 43.2438C34.1831 43.0386 33.9403 42.8758 33.6729 42.7647C33.4055 42.6536 33.1188 42.5965 32.8292 42.5966C32.5397 42.5966 32.253 42.6539 31.9857 42.7651Z" fill="white"/>
<path d="M48.0546 22.777C47.949 22.6823 47.8382 22.5936 47.7226 22.5113C47.599 22.4279 47.4651 22.361 47.3242 22.3121C47.1915 22.2448 47.0487 22.2 46.9014 22.1793C46.5458 22.1081 46.1781 22.1254 45.8307 22.2296C45.4834 22.3338 45.1669 22.5218 44.9092 22.777C44.7091 22.9886 44.5514 23.2365 44.4444 23.5074C44.3317 23.7737 44.2723 24.0594 44.2695 24.3486C44.2733 24.497 44.2881 24.645 44.3138 24.7913C44.3379 24.93 44.3827 25.0643 44.4466 25.1897C44.5482 25.4633 44.7066 25.7122 44.9115 25.9201C45.3356 26.3246 45.897 26.5539 46.483 26.5621C46.6234 26.5584 46.7633 26.5436 46.9014 26.5178C47.0487 26.4971 47.1915 26.4523 47.3242 26.385C47.4651 26.3362 47.599 26.2692 47.7226 26.1858L48.0546 25.9201C48.4661 25.5005 48.6967 24.9363 48.6967 24.3486C48.6967 23.7608 48.4661 23.1966 48.0546 22.777Z" fill="white"/>
</svg>
