<svg width="103" height="93" viewBox="0 0 103 93" fill="none" xmlns="http://www.w3.org/2000/svg">
<path d="M14.2661 93H88.7605C93.9087 93 98.51 90.3347 101.073 85.889C103.642 81.4432 103.642 76.1127 101.073 71.651L63.829 7.14288C61.2602 2.69714 56.6482 0.0318604 51.5 0.0318604C46.3518 0.0318604 41.7505 2.69714 39.171 7.14288L1.92657 71.651C-0.642191 76.1128 -0.642191 81.4273 1.92657 85.889C4.49534 90.3347 9.10734 93 14.2395 93H14.2661ZM7.89524 75.0828L45.1397 10.5746C46.4696 8.26863 48.8614 6.89577 51.5213 6.89577C54.1866 6.89577 56.573 8.26863 57.9029 10.5746L95.1473 75.0828C96.4773 77.3888 96.4773 80.1505 95.1473 82.4565C93.8174 84.7625 91.4256 86.1354 88.7764 86.1354H14.267C11.6017 86.1354 9.22596 84.7625 7.89606 82.4565C6.5661 80.1505 6.56527 77.3888 7.89524 75.0828Z" fill="white"/>
<path d="M51.5103 56.9623C53.4033 56.9623 54.9424 55.4232 54.9424 53.5302V29.505C54.9424 27.612 53.4033 26.0729 51.5103 26.0729C49.6172 26.0729 48.0781 27.612 48.0781 29.505V53.5302C48.0781 55.4232 49.6172 56.9623 51.5103 56.9623Z" fill="white"/>
<path d="M57.0063 71.1578C57.0063 78.4833 46.0234 78.4833 46.0234 71.1578C46.0234 63.8377 57.0063 63.8377 57.0063 71.1578Z" fill="white"/>
</svg>
