<svg width="82" height="61" viewBox="0 0 82 61" fill="none" xmlns="http://www.w3.org/2000/svg">
<path d="M79.84 56.157H71.25V7.79698C71.25 7.26655 71.0393 6.75784 70.6642 6.38277C70.2891 6.0077 69.7804 5.79698 69.25 5.79698H56.37C55.8396 5.79698 55.3309 6.0077 54.9558 6.38277C54.5807 6.75784 54.37 7.26655 54.37 7.79698V56.157H47.92V25.607C47.92 25.0765 47.7093 24.5678 47.3342 24.1928C46.9591 23.8177 46.4504 23.607 45.92 23.607H32.99C32.4596 23.607 31.9509 23.8177 31.5758 24.1928C31.2007 24.5678 30.99 25.0765 30.99 25.607V56.157H24.49V42.407C24.49 41.8765 24.2793 41.3678 23.9042 40.9928C23.5291 40.6177 23.0204 40.407 22.49 40.407H9.6C9.06957 40.407 8.56086 40.6177 8.18579 40.9928C7.81071 41.3678 7.6 41.8765 7.6 42.407V56.157H2C1.46957 56.157 0.960859 56.3677 0.585786 56.7428C0.210714 57.1178 0 57.6265 0 58.157C0 58.6874 0.210714 59.1961 0.585786 59.5712C0.960859 59.9463 1.46957 60.157 2 60.157H79.84C80.3704 60.157 80.8791 59.9463 81.2542 59.5712C81.6293 59.1961 81.84 58.6874 81.84 58.157C81.84 57.6265 81.6293 57.1178 81.2542 56.7428C80.8791 56.3677 80.3704 56.157 79.84 56.157ZM11.6 56.157V44.407H20.49V56.157H11.6ZM34.99 56.157V27.607H43.92V56.157H34.99ZM58.37 56.157V9.79698H67.25V56.157H58.37ZM35.86 11.307L36.2 7.30698L11.02 32.477C10.8339 32.6642 10.6127 32.8126 10.369 32.9139C10.1253 33.0152 9.86391 33.0672 9.6 33.067C9.2036 33.0673 8.81605 32.9498 8.48655 32.7295C8.15706 32.5091 7.90047 32.1958 7.74938 31.8293C7.59829 31.4628 7.55951 31.0597 7.63796 30.6712C7.71641 30.2826 7.90856 29.9261 8.19 29.647L33.37 4.46698L29.37 4.79698C28.8396 4.84207 28.313 4.6746 27.906 4.3314C27.499 3.98821 27.2451 3.49742 27.2 2.96698C27.1549 2.43655 27.3224 1.90993 27.6656 1.50298C28.0088 1.09602 28.4996 0.842069 29.03 0.796982L38.49 0.00698324C38.7798 -0.0172967 39.0714 0.021912 39.3445 0.121876C39.6176 0.22184 39.8656 0.380156 40.0712 0.585787C40.2768 0.791419 40.4351 1.03942 40.5351 1.3125C40.6351 1.58559 40.6743 1.87719 40.65 2.16698L39.86 11.617C39.8197 12.1192 39.5913 12.5877 39.2205 12.9289C38.8497 13.27 38.3638 13.4586 37.86 13.457H37.69C37.1626 13.4136 36.6739 13.163 36.3308 12.76C35.9878 12.357 35.8185 11.8345 35.86 11.307Z" fill="white"/>
</svg>
