<svg width="37" height="37" viewBox="0 0 37 37" fill="none" xmlns="http://www.w3.org/2000/svg">
<path d="M29.2915 26.5898C29.2915 28.2737 27.7919 29.7897 26.3155 30.3939C22.9103 31.8106 19.0228 29.68 16.2989 27.6998C13.6102 25.7388 11.231 23.3708 9.26995 20.6814C7.30463 17.9532 5.21603 14.1394 6.58342 10.7261C7.17314 9.22946 8.61809 7.70825 10.3237 7.70825C12.8093 7.70825 16.611 13.3514 14.4577 15.5014C13.8882 16.0925 13.2257 16.4935 13.5198 17.3745C14.1978 18.6157 15.2936 19.6819 16.2758 20.6814C17.2864 21.6718 18.3462 22.7763 19.6108 23.4448C20.4701 23.788 20.9013 23.0738 21.4636 22.5198C23.3987 20.5876 29.2915 23.8721 29.2915 26.5898Z" stroke="white" stroke-opacity="0.35" stroke-miterlimit="10"/>
<path d="M20.041 12.3333C20.041 9.3533 22.4568 6.9375 25.4368 6.9375V6.9375C28.4169 6.9375 30.8327 9.3533 30.8327 12.3333V12.3333C30.8327 15.3134 28.4169 17.7292 25.4369 17.7292H20.5549C20.542 17.7292 20.5356 17.7292 20.5301 17.729C20.2625 17.7232 20.047 17.5077 20.0411 17.2401C20.041 17.2346 20.041 17.2282 20.041 17.2153V12.3333Z" stroke="white" stroke-opacity="0.35"/>
<path d="M25.4375 10.0208V14.6458M23.125 12.3333L27.75 12.3333" stroke="white" stroke-opacity="0.35" stroke-linecap="round"/>
</svg>
